<svg id="Layer_1" data-name="Layer 1" xmlns="http://www.w3.org/2000/svg" viewBox="0 0 145.62 259.34"><defs><style>.cls-1{fill:#3c3c3b;}.cls-2,.cls-9{fill:none;stroke-miterlimit:10;}.cls-2{stroke:#3c3c3b;}.cls-3{fill:#c99d66;}.cls-4{opacity:0.14;}.cls-5,.cls-7{fill:#7a5b1f;}.cls-6{fill:#997e4d;}.cls-7{opacity:0.38;}.cls-8{fill:#ae8050;}.cls-9{stroke:#c99d66;}.cls-10{fill:#ffe580;}.cls-11{fill:#f2948b;}.cls-12{fill:#ed685f;}.cls-13{fill:#f4a183;}.cls-14{fill:#f7b9a2;}</style></defs><title>globe</title><path class="cls-1" d="M78.26,207.19H68.13a.76.76,0,0,1-.76-.76h0a.76.76,0,0,1,.76-.76H78.26a.76.76,0,0,1,.76.76h0A.76.76,0,0,1,78.26,207.19Z" transform="translate(0 -0.78)"/><line class="cls-2" x1="67.81" y1="197.07" x2="69.65" y2="205.66"/><line class="cls-2" x1="78.7" y1="197.07" x2="76.86" y2="205.66"/><rect class="cls-3" x="54.79" y="228.25" width="36.04" height="31.09" rx="5.85" ry="5.85"/><g class="cls-4"><path class="cls-5" d="M65.32,233.58a1,1,0,0,0-1.41.1,1,1,0,0,0-.12.17,1,1,0,0,0-.12.37,1,1,0,0,0,0,.38,1,1,0,0,0,.17.35,1,1,0,0,0,.14.15l3,2.62a1,1,0,1,0,1.31-1.51l-3-2.58h0Z" transform="translate(0 -0.78)"/><path class="cls-5" d="M75.73,233.58a1,1,0,0,0-1.41.1,1,1,0,0,0-.12.17,1,1,0,0,0,.08,1.1,1,1,0,0,0,.14.15l3,2.62a1,1,0,1,0,1.31-1.51l-3-2.58h0Z" transform="translate(0 -0.78)"/><path class="cls-5" d="M86.14,233.58a1,1,0,0,0-1.41.1,1,1,0,0,0-.12.17,1,1,0,0,0,.08,1.1,1,1,0,0,0,.14.15l3,2.62a1,1,0,1,0,1.31-1.51l-3-2.58h0Z" transform="translate(0 -0.78)"/><path class="cls-5" d="M67,233.78a1,1,0,0,0,1.26,0l.15-.14a1,1,0,0,0-.1-1.41l-3-2.62A1,1,0,1,0,64,231.16Z" transform="translate(0 -0.78)"/><path class="cls-5" d="M77.43,233.78a1,1,0,0,0,1.26,0l.15-.14a1,1,0,0,0-.1-1.41l-3-2.62a1,1,0,1,0-1.31,1.51Z" transform="translate(0 -0.78)"/><path class="cls-5" d="M87.84,233.78a1,1,0,0,0,1.26,0l.15-.14a1,1,0,0,0-.1-1.41l-3-2.62a1,1,0,0,0-1.31,1.51Z" transform="translate(0 -0.78)"/><path class="cls-5" d="M68.43,229.76a1,1,0,0,0,.24-.73h-2.6l1,.83A1,1,0,0,0,68.43,229.76Z" transform="translate(0 -0.78)"/><path class="cls-5" d="M78.84,229.76a1,1,0,0,0,.24-.73h-2.6l1,.83A1,1,0,0,0,78.84,229.76Z" transform="translate(0 -0.78)"/><path class="cls-5" d="M88.33,230.09a5.82,5.82,0,0,0-.72-.43l.23.2A1,1,0,0,0,88.33,230.09Z" transform="translate(0 -0.78)"/><path class="cls-5" d="M59.53,233.61l-.72.62a1,1,0,0,0-.1,1.41l.15.14a1,1,0,0,0,1.09.08l.16-.12,3-2.62a1,1,0,1,0-1.31-1.51l-2.29,2Z" transform="translate(0 -0.78)"/><path class="cls-5" d="M69.94,233.61l-.72.62a1,1,0,0,0-.1,1.41l.15.14a1,1,0,0,0,1.09.08l.16-.12,3-2.62a1,1,0,0,0-1.31-1.51l-2.29,2Z" transform="translate(0 -0.78)"/><path class="cls-5" d="M58.71,231.72a1,1,0,0,0,1.41.1l3-2.62a1,1,0,0,0,.15-.17H60.64l-.38,0-1.46,1.27A1,1,0,0,0,58.71,231.72Z" transform="translate(0 -0.78)"/><path class="cls-5" d="M69.12,231.72a1,1,0,0,0,1.41.1l3-2.62a1,1,0,0,0,.15-.17h-3l-1.48,1.29A1,1,0,0,0,69.12,231.72Z" transform="translate(0 -0.78)"/><path class="cls-5" d="M80.34,233.61l-.72.62a1,1,0,0,0-.1,1.41l.15.14a1,1,0,0,0,1.09.08l.16-.12,3-2.62a1,1,0,1,0-1.31-1.51l-2.29,2Z" transform="translate(0 -0.78)"/><path class="cls-5" d="M79.53,231.72a1,1,0,0,0,1.41.1l3-2.62a1,1,0,0,0,.15-.17h-3l-1.48,1.29A1,1,0,0,0,79.53,231.72Z" transform="translate(0 -0.78)"/><path class="cls-5" d="M65.32,257.1A1,1,0,1,0,64,258.61l1.74,1.51h2.85a1,1,0,0,0-.27-.4Z" transform="translate(0 -0.78)"/><path class="cls-5" d="M75.73,257.1a1,1,0,1,0-1.31,1.51l1.74,1.51H79a1,1,0,0,0-.27-.4Z" transform="translate(0 -0.78)"/><path class="cls-5" d="M84.73,257.2a1,1,0,0,0,.1,1.41l1.54,1.34a5.82,5.82,0,0,0,2-.91l-2.22-1.93A1,1,0,0,0,84.73,257.2Z" transform="translate(0 -0.78)"/><path class="cls-5" d="M61.82,255.3l-3,2.62a1,1,0,0,0,1.31,1.51l3-2.62a1,1,0,0,0-1.31-1.51Z" transform="translate(0 -0.78)"/><path class="cls-5" d="M63.23,259.16a1,1,0,0,0-1.41-.1l-1.21,1.05h2.81A1,1,0,0,0,63.23,259.16Z" transform="translate(0 -0.78)"/><path class="cls-5" d="M72.23,255.3l-3,2.62a1,1,0,0,0,1.31,1.51l3-2.62a1,1,0,0,0-1.31-1.51Z" transform="translate(0 -0.78)"/><path class="cls-5" d="M73.64,259.16a1,1,0,0,0-1.41-.1L71,260.12h2.82A1,1,0,0,0,73.64,259.16Z" transform="translate(0 -0.78)"/><path class="cls-5" d="M82.64,255.3l-3,2.62a1,1,0,0,0,1.31,1.51l3-2.62a1,1,0,1,0-1.31-1.51Z" transform="translate(0 -0.78)"/><path class="cls-5" d="M84,259.16a1,1,0,0,0-1.41-.1l-1.22,1.06h2.82A1,1,0,0,0,84,259.16Z" transform="translate(0 -0.78)"/><path class="cls-5" d="M65.32,253.18A1,1,0,1,0,64,254.69l3,2.62a1,1,0,1,0,1.31-1.51Z" transform="translate(0 -0.78)"/><path class="cls-5" d="M75.73,253.18a1,1,0,1,0-1.31,1.51l3,2.62a1,1,0,1,0,1.31-1.51Z" transform="translate(0 -0.78)"/><path class="cls-5" d="M84.73,253.28a1,1,0,0,0,.1,1.41l3,2.62a1,1,0,1,0,1.31-1.51l-3-2.62A1,1,0,0,0,84.73,253.28Z" transform="translate(0 -0.78)"/><path class="cls-5" d="M67,253.38a1,1,0,1,0,1.31-1.51l-3-2.62A1,1,0,1,0,64,250.77Z" transform="translate(0 -0.78)"/><path class="cls-5" d="M77.43,253.38a1,1,0,1,0,1.31-1.51l-3-2.62a1,1,0,1,0-1.31,1.51Z" transform="translate(0 -0.78)"/><path class="cls-5" d="M86.14,249.26a1,1,0,0,0-1.31,1.51l3,2.62a1,1,0,1,0,1.31-1.51Z" transform="translate(0 -0.78)"/><path class="cls-5" d="M65.32,245.34A1,1,0,1,0,64,246.84l3,2.62A1,1,0,1,0,68.33,248Z" transform="translate(0 -0.78)"/><path class="cls-5" d="M75.73,245.34a1,1,0,1,0-1.31,1.51l3,2.62A1,1,0,1,0,78.74,248Z" transform="translate(0 -0.78)"/><path class="cls-5" d="M89.15,248l-3-2.62a1,1,0,0,0-1.31,1.51l3,2.62A1,1,0,1,0,89.15,248Z" transform="translate(0 -0.78)"/><path class="cls-5" d="M68.33,244l-3-2.62A1,1,0,1,0,64,242.92l3,2.62A1,1,0,1,0,68.33,244Z" transform="translate(0 -0.78)"/><path class="cls-5" d="M78.74,244l-3-2.62a1,1,0,1,0-1.31,1.51l3,2.62A1,1,0,1,0,78.74,244Z" transform="translate(0 -0.78)"/><path class="cls-5" d="M89.15,244l-3-2.62a1,1,0,0,0-1.31,1.51l3,2.62A1,1,0,1,0,89.15,244Z" transform="translate(0 -0.78)"/><path class="cls-5" d="M58.71,255.24a1,1,0,0,0,1.41.1l3-2.62a1,1,0,0,0-1.31-1.51l-3,2.62A1,1,0,0,0,58.71,255.24Z" transform="translate(0 -0.78)"/><path class="cls-5" d="M69.12,255.24a1,1,0,0,0,1.41.1l3-2.62a1,1,0,0,0-1.31-1.51l-3,2.62A1,1,0,0,0,69.12,255.24Z" transform="translate(0 -0.78)"/><path class="cls-5" d="M61.82,247.3l-3,2.62a1,1,0,0,0,1.31,1.51l3-2.62a1,1,0,1,0-1.31-1.51Z" transform="translate(0 -0.78)"/><path class="cls-5" d="M72.23,247.3l-3,2.62a1,1,0,0,0,1.31,1.51l3-2.62a1,1,0,0,0-1.31-1.51Z" transform="translate(0 -0.78)"/><path class="cls-5" d="M79.53,255.24a1,1,0,0,0,1.41.1l3-2.62a1,1,0,1,0-1.31-1.51l-3,2.62A1,1,0,0,0,79.53,255.24Z" transform="translate(0 -0.78)"/><path class="cls-5" d="M89.93,255.24a1,1,0,0,0,.74.34,5.85,5.85,0,0,0,.15-1.32v-1.12l-.8.7A1,1,0,0,0,89.93,255.24Z" transform="translate(0 -0.78)"/><path class="cls-5" d="M61.82,239.62l-3,2.62a1,1,0,0,0,1.31,1.51l3-2.62a1,1,0,1,0-1.31-1.51Z" transform="translate(0 -0.78)"/><path class="cls-5" d="M63.23,243.48a1,1,0,0,0-1.41-.1l-3,2.62a1,1,0,0,0,1.31,1.51l3-2.62A1,1,0,0,0,63.23,243.48Z" transform="translate(0 -0.78)"/><path class="cls-5" d="M72.23,239.62l-3,2.62a1,1,0,0,0,1.31,1.51l3-2.62a1,1,0,0,0-1.31-1.51Z" transform="translate(0 -0.78)"/><path class="cls-5" d="M73.64,243.48a1,1,0,0,0-1.41-.1l-3,2.62a1,1,0,0,0,1.31,1.51l3-2.62A1,1,0,0,0,73.64,243.48Z" transform="translate(0 -0.78)"/><path class="cls-5" d="M82.64,247.3l-3,2.62a1,1,0,0,0,1.31,1.51l3-2.62a1,1,0,1,0-1.31-1.51Z" transform="translate(0 -0.78)"/><path class="cls-5" d="M89.93,251.32a1,1,0,0,0,.9.33v-2.43l-.8.69A1,1,0,0,0,89.93,251.32Z" transform="translate(0 -0.78)"/><path class="cls-5" d="M82.64,239.62l-3,2.62a1,1,0,0,0,1.31,1.51l3-2.62a1,1,0,1,0-1.31-1.51Z" transform="translate(0 -0.78)"/><path class="cls-5" d="M84,243.48a1,1,0,0,0-1.41-.1l-3,2.62a1,1,0,0,0,1.31,1.51l3-2.62A1,1,0,0,0,84,243.48Z" transform="translate(0 -0.78)"/><path class="cls-5" d="M89.93,243.64a1,1,0,0,0,.9.33v-2.43l-.8.69A1,1,0,0,0,89.93,243.64Z" transform="translate(0 -0.78)"/><path class="cls-5" d="M89.93,247.4a1,1,0,0,0,.9.33V245.3L90,246A1,1,0,0,0,89.93,247.4Z" transform="translate(0 -0.78)"/><path class="cls-5" d="M67,241.62a1,1,0,1,0,1.31-1.51l-3-2.62A1,1,0,1,0,64,239Z" transform="translate(0 -0.78)"/><path class="cls-5" d="M77.43,241.62a1,1,0,1,0,1.31-1.51l-3-2.62A1,1,0,1,0,74.42,239Z" transform="translate(0 -0.78)"/><path class="cls-5" d="M84.73,237.6a1,1,0,0,0,.1,1.41l3,2.62a1,1,0,1,0,1.31-1.51l-3-2.62A1,1,0,0,0,84.73,237.6Z" transform="translate(0 -0.78)"/><path class="cls-5" d="M58.71,239.56a1,1,0,0,0,1.41.1l3-2.62a1,1,0,1,0-1.31-1.51l-3,2.62A1,1,0,0,0,58.71,239.56Z" transform="translate(0 -0.78)"/><path class="cls-5" d="M72.23,235.54l-3,2.62a1,1,0,0,0,1.31,1.51l3-2.62a1,1,0,0,0-1.31-1.51Z" transform="translate(0 -0.78)"/><path class="cls-5" d="M82.64,235.54l-3,2.62a1,1,0,0,0,1.31,1.51l3-2.62a1,1,0,1,0-1.31-1.51Z" transform="translate(0 -0.78)"/><path class="cls-5" d="M89.93,239.56a1,1,0,0,0,.9.33v-2.43l-.8.7A1,1,0,0,0,89.93,239.56Z" transform="translate(0 -0.78)"/><path class="cls-5" d="M89.72,234.73a1,1,0,0,0,0,.38,1,1,0,0,0,.24.53l.15.14a1,1,0,0,0,.35.17,1,1,0,0,0,.38,0h0v-1.09a5.87,5.87,0,0,0-.13-1.23l-.67.58A1,1,0,0,0,89.72,234.73Z" transform="translate(0 -0.78)"/><path class="cls-5" d="M58,229.76a1,1,0,0,0,.12-.16,5.84,5.84,0,0,0-.86.5A1,1,0,0,0,58,229.76Z" transform="translate(0 -0.78)"/><path class="cls-6" d="M60.61,260.12l1.21-1.05a1,1,0,0,1,1.6,1.06h2.33L64,258.61a1,1,0,1,1,1.31-1.51l3,2.62a1,1,0,0,1,.27.4H71l1.22-1.06a1,1,0,0,1,1.6,1.06h2.33l-1.74-1.51a1,1,0,1,1,1.31-1.51l3,2.62a1,1,0,0,1,.27.4h2.41l1.22-1.06a1,1,0,0,1,1.6,1.06H85a5.85,5.85,0,0,0,1.39-.17l-1.54-1.34a1,1,0,0,1,1.31-1.51L88.36,259a5.85,5.85,0,0,0,2.31-3.45,1,1,0,0,1-.65-1.75l.8-.7v-1.49a1,1,0,0,1-.8-1.74l.8-.69v-1.49A1,1,0,0,1,90,246l.8-.69V244a1,1,0,0,1-.8-1.74l.8-.69v-1.65a1,1,0,0,1-.8-1.74l.8-.7V236h0a1,1,0,0,1-.38,0,1,1,0,0,1-.35-.17l-.15-.14a1,1,0,0,1,.1-1.41l.67-.58a5.85,5.85,0,0,0-2.37-3.57,1,1,0,0,1-.49-.23l-.23-.2A5.82,5.82,0,0,0,85,229H84.1a1,1,0,0,1-.15.17l-3,2.62a1,1,0,0,1-1.31-1.51L81.1,229h-2a1,1,0,0,1-1.65.83l-1-.83H73.69a1,1,0,0,1-.15.17l-3,2.62a1,1,0,0,1-1.31-1.51L70.7,229h-2a1,1,0,0,1-1.65.83l-1-.83H63.29a1,1,0,0,1-.15.17l-3,2.62a1,1,0,0,1-1.31-1.51L60.27,229a5.81,5.81,0,0,0-2.13.55,1,1,0,0,1-.12.16,1,1,0,0,1-.75.34,5.88,5.88,0,0,0-.92.81l1.57,1.37a1,1,0,0,1,.1,1.41l-.15.14a1,1,0,0,1-1.26,0l-1.36-1.18a5.81,5.81,0,0,0-.32,1h0l3,2.58a1,1,0,1,1-1.31,1.51l-1.83-1.59v1.3l.12.09,3,2.62a1,1,0,1,1-1.31,1.51L54.79,240v1.3l.12.09,3,2.62a1,1,0,1,1-1.31,1.51L54.79,244v1.3l.12.09,3,2.62a1,1,0,1,1-1.31,1.51l-1.83-1.59v1.3l.12.09,3,2.62a1,1,0,1,1-1.31,1.51l-1.83-1.59v1.3l.12.09,3,2.62a1,1,0,1,1-1.31,1.51L55,255.93A5.85,5.85,0,0,0,60.61,260.12Zm-1.8-22,3-2.62A1,1,0,1,1,63.13,237l-3,2.62a1,1,0,0,1-1.31-1.51Zm30.34-2a1,1,0,1,1-1.31,1.51l-3-2.62a1,1,0,0,1-.14-.15,1,1,0,0,1-.08-1.1,1,1,0,0,1,.12-.17,1,1,0,0,1,1.41-.1l0,0h0Zm-5.2.85-3,2.62a1,1,0,0,1-1.31-1.51l3-2.62A1,1,0,1,1,83.94,237Zm5.3,12.32a1,1,0,0,1-1.41.1l-3-2.62a1,1,0,0,1,1.31-1.51l3,2.62A1,1,0,0,1,89.25,249.36Zm0,3.92a1,1,0,0,1-1.41.1l-3-2.62a1,1,0,0,1,1.31-1.51l3,2.62A1,1,0,0,1,89.25,253.28Zm0-7.84a1,1,0,0,1-1.41.1l-3-2.62a1,1,0,0,1,1.31-1.51l3,2.62A1,1,0,0,1,89.25,245.44Zm-26.12-.56-3,2.62A1,1,0,0,1,58.81,246l3-2.62a1,1,0,0,1,1.31,1.51Zm0,3.92-3,2.62a1,1,0,0,1-1.31-1.51l3-2.62a1,1,0,1,1,1.31,1.51Zm-4.32,5,3-2.62a1,1,0,0,1,1.31,1.51l-3,2.62a1,1,0,0,1-1.31-1.51Zm4.32-12.71-3,2.62a1,1,0,0,1-1.31-1.51l3-2.62a1,1,0,1,1,1.31,1.51ZM64,239a1,1,0,1,1,1.31-1.51l3,2.62A1,1,0,1,1,67,241.62Zm9.52,5.88-3,2.62A1,1,0,0,1,69.22,246l3-2.62a1,1,0,0,1,1.31,1.51Zm0,3.92-3,2.62a1,1,0,0,1-1.31-1.51l3-2.62a1,1,0,0,1,1.31,1.51Zm-5.1-3.36a1,1,0,0,1-1.41.1l-3-2.62a1,1,0,1,1,1.31-1.51l3,2.62A1,1,0,0,1,68.43,245.44Zm0,3.92a1,1,0,0,1-1.41.1l-3-2.62a1,1,0,1,1,1.31-1.51l3,2.62A1,1,0,0,1,68.43,249.36Zm-4.52,0a1,1,0,0,1,1.41-.1l3,2.62A1,1,0,1,1,67,253.38l-3-2.62A1,1,0,0,1,63.92,249.36Zm5.3,4.48,3-2.62a1,1,0,0,1,1.31,1.51l-3,2.62a1,1,0,0,1-1.31-1.51Zm4.32-12.71-3,2.62a1,1,0,0,1-1.31-1.51l3-2.62a1,1,0,0,1,1.31,1.51Zm.88-2.12a1,1,0,1,1,1.31-1.51l3,2.62a1,1,0,1,1-1.31,1.51Zm9.52,5.88-3,2.62A1,1,0,0,1,79.63,246l3-2.62a1,1,0,1,1,1.31,1.51Zm0,3.92-3,2.62a1,1,0,0,1-1.31-1.51l3-2.62a1,1,0,1,1,1.31,1.51Zm-5.1-3.36a1,1,0,0,1-1.41.1l-3-2.62a1,1,0,1,1,1.31-1.51l3,2.62A1,1,0,0,1,78.84,245.44Zm0,3.92a1,1,0,0,1-1.41.1l-3-2.62a1,1,0,1,1,1.31-1.51l3,2.62A1,1,0,0,1,78.84,249.36Zm-4.52,0a1,1,0,0,1,1.41-.1l3,2.62a1,1,0,1,1-1.31,1.51l-3-2.62A1,1,0,0,1,74.32,249.36Zm5.3,4.48,3-2.62a1,1,0,1,1,1.31,1.51l-3,2.62a1,1,0,0,1-1.31-1.51Zm4.32-12.71-3,2.62a1,1,0,0,1-1.31-1.51l3-2.62a1,1,0,1,1,1.31,1.51Zm-5.2-4.93a1,1,0,1,1-1.31,1.51l-3-2.62a1,1,0,0,1-.34-.87,1,1,0,0,1,.12-.37,1,1,0,0,1,.12-.17,1,1,0,0,1,1.41-.1l0,0h0Zm-5.2.85-3,2.62a1,1,0,0,1-1.31-1.51l3-2.62A1,1,0,0,1,73.54,237Zm-5.2-.85A1,1,0,1,1,67,237.7l-3-2.62a1,1,0,0,1-.14-.15,1,1,0,0,1-.17-.35,1,1,0,0,1,0-.38,1,1,0,0,1,.12-.37,1,1,0,0,1,.12-.17,1,1,0,0,1,1.41-.1l0,0h0Zm-5.2,20.61-3,2.62a1,1,0,0,1-1.31-1.51l3-2.62a1,1,0,0,1,1.31,1.51Zm5.3.4a1,1,0,0,1-1.41.1l-3-2.62a1,1,0,1,1,1.31-1.51l3,2.62A1,1,0,0,1,68.43,257.2Zm5.1-.4-3,2.62a1,1,0,0,1-1.31-1.51l3-2.62a1,1,0,0,1,1.31,1.51Zm5.3.4a1,1,0,0,1-1.41.1l-3-2.62a1,1,0,1,1,1.31-1.51l3,2.62A1,1,0,0,1,78.84,257.2Zm5.1-.4-3,2.62a1,1,0,0,1-1.31-1.51l3-2.62a1,1,0,1,1,1.31,1.51Zm5.2-1a1,1,0,1,1-1.31,1.51l-3-2.62a1,1,0,0,1,1.31-1.51Zm0-15.68a1,1,0,1,1-1.31,1.51l-3-2.62a1,1,0,0,1,1.31-1.51Zm-4.42-10.36a1,1,0,0,1,1.41-.1l3,2.62a1,1,0,0,1,.1,1.41l-.15.14a1,1,0,0,1-1.26,0l-3-2.62A1,1,0,0,1,84.73,229.76Zm-2.1,1.86a1,1,0,1,1,1.31,1.51l-3,2.62-.16.12a1,1,0,0,1-1.09-.08l-.15-.14a1,1,0,0,1,.1-1.41l.72-.62h0Zm-8.31-1.86a1,1,0,0,1,1.41-.1l3,2.62a1,1,0,0,1,.1,1.41l-.15.14a1,1,0,0,1-1.26,0l-3-2.62A1,1,0,0,1,74.32,229.76Zm-2.1,1.86a1,1,0,0,1,1.31,1.51l-3,2.62-.16.12A1,1,0,0,1,70,236a1,1,0,0,1-.73-.2l-.15-.14a1,1,0,0,1-.12-.16,1,1,0,0,1-.12-.37,1,1,0,0,1,.34-.87l.72-.62h0Zm-8.31-1.86a1,1,0,0,1,1.41-.1l3,2.62a1,1,0,0,1,.1,1.41l-.15.14a1,1,0,0,1-1.26,0l-3-2.62A1,1,0,0,1,63.92,229.76Zm-2.1,1.86a1,1,0,1,1,1.31,1.51l-3,2.62-.16.12a1,1,0,0,1-1.09-.08l-.15-.14a1,1,0,0,1,.1-1.41l.72-.62h0Z" transform="translate(0 -0.78)"/><path class="cls-5" d="M58,257.2a1,1,0,0,0-.1-1.41l-3-2.62-.12-.09v1.17a5.84,5.84,0,0,0,.24,1.66l1.58,1.38A1,1,0,0,0,58,257.2Z" transform="translate(0 -0.78)"/><path class="cls-5" d="M58,253.28a1,1,0,0,0-.1-1.41l-3-2.62-.12-.09v2.62l1.83,1.59A1,1,0,0,0,58,253.28Z" transform="translate(0 -0.78)"/><path class="cls-5" d="M58,249.36a1,1,0,0,0-.1-1.41l-3-2.62-.12-.09v2.62l1.83,1.59A1,1,0,0,0,58,249.36Z" transform="translate(0 -0.78)"/><path class="cls-5" d="M58,245.44a1,1,0,0,0-.1-1.41l-3-2.62-.12-.09V244l1.83,1.59A1,1,0,0,0,58,245.44Z" transform="translate(0 -0.78)"/><path class="cls-5" d="M58,241.52a1,1,0,0,0-.1-1.41l-3-2.62-.12-.09V240l1.83,1.59A1,1,0,0,0,58,241.52Z" transform="translate(0 -0.78)"/><path class="cls-5" d="M58,237.6a1,1,0,0,0-.1-1.41l-3-2.58h0a5.86,5.86,0,0,0-.15,1.28v1.23l1.83,1.59A1,1,0,0,0,58,237.6Z" transform="translate(0 -0.78)"/><path class="cls-5" d="M56.62,233.78a1,1,0,0,0,1.26,0l.15-.14a1,1,0,0,0-.1-1.41l-1.57-1.37a5.85,5.85,0,0,0-1.1,1.69Z" transform="translate(0 -0.78)"/></g><path class="cls-7" d="M57.9,259.43c4.65-7.78,13.5-13.7,20.92-17.8a70.63,70.63,0,0,1,12-5.24v-1.5A5.87,5.87,0,0,0,85,229H60.64l-.38,0a5.86,5.86,0,0,0-3,1.05,6,6,0,0,0-2,2.5,6,6,0,0,0-.46,2.29v19.38a5.86,5.86,0,0,0,3.11,5.17Z" transform="translate(0 -0.78)"/><path class="cls-8" d="M90.28,233.43H55.34a2.2,2.2,0,0,1-2.2-2.2h0a2.2,2.2,0,0,1,2.2-2.2H90.28a2.2,2.2,0,0,1,2.2,2.2h0A2.2,2.2,0,0,1,90.28,233.43Z" transform="translate(0 -0.78)"/><line class="cls-9" x1="64.39" y1="197.07" x2="55.34" y2="228.25"/><line class="cls-9" x1="81.24" y1="197.07" x2="90.28" y2="228.25"/><path class="cls-10" d="M145.62,74A72.81,72.81,0,1,0,0,74c0,31.69,45.22,97.38,64.39,123.8H81.24C100.41,171.43,145.62,105.74,145.62,74Z" transform="translate(0 -0.78)"/><path class="cls-11" d="M77,1.36c-1.39-.08-2.8-.12-4.21-.12A72.81,72.81,0,0,0,0,74c0,31.69,45.22,97.38,64.39,123.8h3.43C48.65,171.43,8.43,105.74,8.43,74A72.81,72.81,0,0,1,77,1.36Z" transform="translate(0 -0.78)"/><path class="cls-11" d="M68.6,1.36c1.39-.08,2.8-.12,4.21-.12A72.81,72.81,0,0,1,145.62,74c0,31.69-45.22,97.38-64.39,123.8H77.81C97,171.43,137.2,105.74,137.2,74A72.81,72.81,0,0,0,68.6,1.36Z" transform="translate(0 -0.78)"/><path class="cls-11" d="M69.83,3.78A.5.5,0,0,0,69.27,3C55.92,9.86,43.22,18.84,33.57,30.47,19.77,47.08,17.76,67.6,22.39,88.16,28,113,39.06,137.36,50.32,160c4,8,8.11,15.84,12.54,23.56.93,1.62,6.92,14.25,8.81,14.25h1.15c-10.76-21.82-21-43.93-29.95-66.53a133.16,133.16,0,0,1-8.34-69.92C38.3,35.48,51.21,19.82,69.83,3.78Z" transform="translate(0 -0.78)"/><path class="cls-11" d="M75.8,3.78A.5.5,0,0,1,76.35,3c13.35,6.91,26.05,15.89,35.71,27.51,13.8,16.61,15.81,37.13,11.18,57.69C117.65,113,106.57,137.36,95.31,160c-4,8-8.11,15.84-12.54,23.56-.93,1.62-6.92,14.25-8.81,14.25H72.81c10.76-21.82,21-43.93,29.95-66.53a138,138,0,0,0,8.61-71.21C107.6,34.2,94.41,19.82,75.8,3.78Z" transform="translate(0 -0.78)"/><path class="cls-11" d="M72.81,4.17s-13,30.54-14.63,54.47S71.67,197.85,71.67,197.85H74c1.91-29.37,7.28-130.25,7.28-139.48C81.24,46.81,72.81,4.17,72.81,4.17Z" transform="translate(0 -0.78)"/><path class="cls-11" d="M49.62,18.26a149.1,149.1,0,0,0,26.23,3.18c8.44.21,16.54-1.21,24.78-2.84a71.82,71.82,0,0,0,14.22-4A72.84,72.84,0,0,0,34,12.45C38.26,15.89,44.52,17.21,49.62,18.26Z" transform="translate(0 -0.78)"/><path class="cls-10" d="M77.41,17.7l-1.63,0a147.9,147.9,0,0,1-25.93-3.15c-4.11-.85-8.83-1.73-12.69-4a70.38,70.38,0,0,1,74,1.52,82.7,82.7,0,0,1-11,2.81c-7.26,1.43-15,2.82-22.78,2.82Z" transform="translate(0 -0.78)"/><rect class="cls-12" x="62.57" y="195.92" width="20.31" height="1.74" rx="0.86" ry="0.86"/><path class="cls-13" d="M57.77,232.45l.41-.76a.55.55,0,0,0-.86-.67l-.33.3s0,0,0,0c.05-.66-.88-.69-1.08-.15,0,.11-.08.23-.11.34l-.22-.23c-.42-.47-1.18.13-.86.67a4.08,4.08,0,0,0,.26.38,6,6,0,0,0-1.82,4.11,3.16,3.16,0,1,0,6.29,0A6.09,6.09,0,0,0,57.77,232.45Z" transform="translate(0 -0.78)"/><path class="cls-14" d="M58.09,232.8A11.06,11.06,0,0,1,55,239l-.34.29a3,3,0,0,0,1.67.52,3.28,3.28,0,0,0,3.15-3.39A6.22,6.22,0,0,0,58.09,232.8Z" transform="translate(0 -0.78)"/><path class="cls-13" d="M74.21,232.45l.41-.76a.55.55,0,0,0-.86-.67l-.33.3s0,0,0,0c.05-.66-.88-.69-1.08-.15,0,.11-.08.23-.11.34l-.22-.23c-.42-.47-1.18.13-.86.67a4.1,4.1,0,0,0,.26.38,6,6,0,0,0-1.82,4.11,3.16,3.16,0,1,0,6.29,0A6.09,6.09,0,0,0,74.21,232.45Z" transform="translate(0 -0.78)"/><path class="cls-14" d="M74.52,232.8A11.06,11.06,0,0,1,71.4,239l-.34.29a3,3,0,0,0,1.67.52,3.28,3.28,0,0,0,3.15-3.39A6.22,6.22,0,0,0,74.52,232.8Z" transform="translate(0 -0.78)"/><path class="cls-13" d="M90.64,232.45l.41-.76a.55.55,0,0,0-.86-.67l-.33.3s0,0,0,0c.05-.66-.88-.69-1.08-.15,0,.11-.08.23-.11.34l-.22-.23c-.42-.47-1.18.13-.86.67a4.1,4.1,0,0,0,.26.38A6,6,0,0,0,86,236.42a3.16,3.16,0,1,0,6.29,0A6.09,6.09,0,0,0,90.64,232.45Z" transform="translate(0 -0.78)"/><path class="cls-14" d="M91,232.8A11.06,11.06,0,0,1,87.84,239l-.34.29a3,3,0,0,0,1.67.52,3.28,3.28,0,0,0,3.15-3.39A6.22,6.22,0,0,0,91,232.8Z" transform="translate(0 -0.78)"/></svg>