<?xml version="1.0" encoding="utf-8"?>
<!-- Generator: Adobe Illustrator 17.0.0, SVG Export Plug-In . SVG Version: 6.00 Build 0)  -->
<!DOCTYPE svg PUBLIC "-//W3C//DTD SVG 1.1//EN" "http://www.w3.org/Graphics/SVG/1.1/DTD/svg11.dtd">
<svg version="1.1" id="Capa_1" xmlns="http://www.w3.org/2000/svg" xmlns:xlink="http://www.w3.org/1999/xlink" x="0px" y="0px"
	 width="175.278px" height="174.431px" viewBox="0 0 175.278 174.431" enable-background="new 0 0 175.278 174.431"
	 xml:space="preserve">
<g>
	<polygon fill="#FFFFFF" points="67.9,134.96 67.9,0 175.278,134.96 	"/>
	<path fill="#DDDCDC" d="M67.911,30.969c0,2.548-2.332,6.437-7.003,11.676c-4.668,5.229-10.258,11.172-16.763,17.823
		c-6.508,6.645-13.016,13.721-19.523,21.219c-6.507,7.497-11.744,15.986-15.704,25.466c-3.96,9.478-5.517,18.745-4.669,27.797
		h63.662V30.969z"/>
	<path fill="#C44036" d="M4.668,143.447h29.709h33.186v18.332v8.339v4.313H37.344h-2.122h-0.423h-3.501c0,0-5.694-2.406-7.955-3.822
		c-2.266-1.413-3.963-2.685-5.097-3.817l-1.697-1.698L0,143.447H4.668z"/>
	<polygon fill="#CF714E" points="150.663,143.447 150.663,161.945 150.663,170.608 150.663,174.431 67.563,174.431 67.563,170.118 
		67.563,161.945 67.563,143.447 	"/>
	<polygon fill="#E6B870" points="150.688,152.431 150.688,158.17 67.563,158.17 67.563,152.395 	"/>
	<polygon fill="#DA9331" points="6.578,152.366 67.563,152.395 67.563,158.17 11.275,158.17 	"/>
</g>
</svg>
