<svg id="Layer_1" data-name="Layer 1" xmlns="http://www.w3.org/2000/svg" viewBox="0 0 661.17 78.96"><defs><style>.cls-1{fill:#009fd7;fill-rule:evenodd;}</style></defs><title>ola4</title><path class="cls-1" d="M661.17,79.14V10c-8.45-5-39.84-20.9-72,3.16-20.6,15.4-49.77-14.55-76-3.09-8.57,3.75-40.43,21.73-53.6,15.47-77.89-37.06-71.83,12.21-110.42-7.68-52.7-27.16-57.59,28.77-127.39-4C193.94.78,164.93,22.2,137,23.11,95.48,24.47,86.29-6.11,57,10.54c-10.76,6.11-35.1,10.25-48.07,1.65A34.52,34.52,0,0,0,0,8.1v71Z" transform="translate(0 -0.18)"/></svg>