<svg id="Layer_1" data-name="Layer 1" xmlns="http://www.w3.org/2000/svg" viewBox="0 0 661.17 65.4"><defs><style>.cls-1{fill:#44c7f4;}</style></defs><title>ola1</title><path class="cls-1" d="M0,65.45V21.56c8.45-4.43,24-16.81,72-2.12,25.9,7.91,48.75-18.86,74.93-8.66,8.57,3.34,40.9,11.43,54.63,7C270.19-4.55,273.39,28.64,312,11c52.7-24.16,57.59,25.59,127.39-3.54,27.83-11.61,56.84,7.45,84.77,8.26,41.52,1.21,50.71-26,80-11.19,10.76,5.44,35.1,9.12,48.07,1.46a36.68,36.68,0,0,1,9-3.68V65.45Z" transform="translate(0 -0.05)"/></svg>